<?xml version="1.0" encoding="utf-8"?>
<!-- Generator: Adobe Illustrator 26.0.1, SVG Export Plug-In . SVG Version: 6.00 Build 0)  -->
<svg version="1.1" id="Laag_1" xmlns="http://www.w3.org/2000/svg" xmlns:xlink="http://www.w3.org/1999/xlink" x="0px" y="0px"
	 viewBox="0 0 805.79 257.48" style="enable-background:new 0 0 805.79 257.48;" xml:space="preserve">
<style type="text/css">
	.st0{clip-path:url(#SVGID_00000147908078211869959820000011061216060851942075_);fill:#FFFFFF;}
	
		.st1{clip-path:url(#SVGID_00000147908078211869959820000011061216060851942075_);fill:none;stroke:#FFFFFF;stroke-width:1.5;stroke-miterlimit:10;}
</style>
<g>
	<defs>
		<rect id="SVGID_1_" width="805.79" height="257.48"/>
	</defs>
	<clipPath id="SVGID_00000151538799257576772640000011931158698286358702_">
		<use xlink:href="#SVGID_1_"  style="overflow:visible;"/>
	</clipPath>
	<path style="clip-path:url(#SVGID_00000151538799257576772640000011931158698286358702_);fill:#FFFFFF;" d="M244.38,0.75
		c4.09,5.3,7.79,10.98,12.37,15.83c9.1,9.65,18.68,18.84,28.31,28.46c-0.71,1.73-1.43,3.51-2.2,5.39c0.66,0.7,1.38,1.46,1.83,1.92
		c2.95,0.4,5.52,0.76,8.35,1.14c1.35-1.86,4.71-2.77,3.73-5.81c15-14.98,29.82-29.77,45.21-45.15c2.74,4.01,5.52,8.07,8.61,12.6
		c-17,11.87-29.92,27.49-44.94,41.54c-1.68-0.6-3.49-1.25-5.76-2.06c-0.87,0.86-1.98,1.95-3.36,3.3
		c5.17,6.32,9.72,12.69,15.08,18.29c11.02,11.49,22.47,22.57,33.8,33.87c-2.92,4.83-8.07,6.33-11.89,9
		c-9.57-10.46-18.92-20.66-28.27-30.87c-0.41,0.22-0.82,0.45-1.22,0.68c1.56,14.08,4.31,27.96,7.46,42.25
		c6.02,1.13,12.08,2.41,18.2,3.34c2.44,0.37,4.28,1.3,4.46,3.65c0.18,2.38-1.48,3.71-3.92,4.21c-1.23,0.25-2.54,0.92-3.45,1.78
		c-3.17,3.02-6.28,6.11-9.19,9.38c-0.85,0.95-1.49,2.64-1.33,3.87c0.91,6.95,2.07,13.87,3.2,20.8c0.12,0.75,0.54,1.46,0.86,2.3
		h26.75v-56.94h16.89v-20.99c4.48-1.91,8.6-3.67,12.87-5.49V80.09c2.93-2.96,5.85-4,9.86-2.92c6.25,1.68,12.68,2.72,19.38,4.1
		c0.19-1.38,0.36-2.62,0.57-4.13c8.04-3.38,16.21-6.81,24.38-10.24c4.76-2,9.52-4.02,14.29-6.03c3.39-1.43,6.67-3.51,11.02-0.88
		V46.8c19.3-9.77,38.2-19.34,57.12-28.92c10.72,5.16,21.33,10.27,32.13,15.46v64.27c26.09,7.45,52.01,14.85,78.22,22.33v60.39h9.73
		c0.52-4.54,1.1-9.08,1.55-13.64c0.83-8.43,1.85-16.86,2.27-25.32c0.28-5.66-0.35-11.37-0.53-17.06c-0.09-2.89-0.52-5.84,1.93-8.2
		c0.46-0.44,0.49-1.47,0.49-2.23c0.02-18.43,0.02-36.86,0.02-55.5c-2.89-1.43-3.81-3.87-4.1-7.03c-0.7-7.55-6.73-11.18-13.98-8.55
		c-3.36,1.22-6.51,2.63-10.3,2.19c-4.01-0.46-5.61-1.47-5.87-5.39c-0.21-3.17-0.22-6.38,0.01-9.54c0.29-4.01,1.76-5.1,5.91-5.29
		c3.09-0.14,5.97,0.18,8.83,1.6c4.13,2.05,8.27,2.41,12.24-0.86c1.11-0.92,2.93-1.42,4.4-1.39c16.07,0.35,30.69,4.57,41.77,17
		c3.59,4.02,6.48,8.66,9.89,13.29c-1.16,1.21-1.98,2.07-2.9,3.02c-4.15-3.38-7.84-6.6-11.76-9.5c-2.42-1.8-5.08-3.4-7.85-4.58
		c-5.25-2.24-8.52-0.12-8.98,5.49c-0.07,0.79-0.12,1.6-0.03,2.38c0.34,3.06-0.6,5.49-3.66,7.09c0,3.42,0,6.85,0,10.28
		c0,14.46,0.01,28.91-0.01,43.37c0,2.12,0.26,3.95,1.61,5.91c1.13,1.64,1.41,4.31,1.12,6.39c-1.47,10.48-0.61,20.89,0.39,31.31
		c0.78,8.15,1.7,16.28,2.6,24.71h14.18c0-1.56,0-2.98,0-4.39c0.01-16.05-0.11-32.1,0.09-48.14c0.09-7.17-1.74-13.65-5.98-19.29
		c-5.32-7.1-2.76-14.72,0.44-20.4c0.4-0.71,1.55-1.01,3.08-1.96c0.84,3.38,1.49,6.01,2.14,8.65c0.84,3.43,4.57,5.4,8.3,4.39
		c4.31-1.16,6.14-3.91,5.11-7.8c-0.7-2.66-1.46-5.31-2.15-7.79c1.35-1.96,2.65-1.77,4.28-0.86c5.59,3.12,10.9,13.3,9.82,19.65
		c-0.26,1.52-1.38,3.23-2.62,4.19c-5.58,4.32-8.09,10.27-8.32,16.89c-0.48,13.64-0.37,27.3-0.49,40.96
		c-0.01,0.51,0.19,1.02,0.34,1.77h7.25c0.85-2.75,1.76-5.49,2.55-8.27c1.95-6.79,5.35-12.59,10.96-17.1
		c1.18-0.95,2.17-2.76,2.33-4.27c1.79-16.99,3.41-34,5.05-51.01c0.08-0.78,0.01-1.58,0.01-2.51c-9.06-7.17-9.82-17.56-10.77-28.08
		c2.74-2.86,6.17-2.92,10.04-2.16c0.33,1.03,0.68,2.11,1.15,3.57c1.49-0.51,2.81-0.97,4.3-1.48v-6.62c3.31-0.21,6.4-0.41,9.63-0.62
		c1.15,1.9,2.16,3.57,3.31,5.47h3.82c0.35-2.49,0.68-4.82,1.07-7.6h11.93c0.22,2.67,0.42,5,0.63,7.53c1.45,0.13,2.73,0.24,4,0.36
		c1.09-1.93,2.1-3.72,3.23-5.72c3.27,0.17,6.4,0.33,9.81,0.51v6.53c1.33,0.58,2.49,1.08,3.88,1.69c0.59-1.3,1.11-2.45,1.92-4.25
		c3.03,0.49,6.18,0.99,9.62,1.54c-0.77,11.5-1.7,22.12-10.79,29.58c1.84,18.72,3.65,37.17,5.52,56.24
		c9.8,5.97,12.62,16.54,15.41,27.12c1.34,5.08,2.6,10.18,4.01,15.73h-33.25c-0.73-4.37-1.2-8.81-2.27-13.09
		c-1.57-6.28-4.67-11.77-9.91-15.85c-5.56-4.33-11.29-4.22-16.56,0.45c-6.48,5.74-9.51,13.18-10.37,21.61
		c-0.22,2.2-0.23,4.43-0.34,6.52c-5.13,1.32-16.15,0.9-19.01-1.12h16.2c0.64-4.06,0.98-7.72,1.82-11.25
		c1.63-6.82,4.64-13,10.16-17.54c7.17-5.91,14.64-5.49,21.32,0.99c6.7,6.5,9.5,14.74,10.48,23.77c0.11,1.05,0.1,2.11,0.17,3.46
		h29.01c-4.51-14.52-5.2-30.36-18.86-39.8c-1.93-19.6-3.82-38.83-5.72-58.23c8.07-9.3,11.02-16.63,10.51-27
		c-1.7-0.35-3.54-0.73-5.5-1.14c-0.73,1.74-1.27,3.03-2.04,4.86c-2.52-0.91-4.92-1.77-7.43-2.68v-6.18
		c-2.15-0.11-4.08-0.21-6.3-0.33c-0.88,1.86-1.69,3.6-2.52,5.36h-8.38c-0.13-2.64-0.25-4.97-0.38-7.67h-8.35
		c-0.12,2.58-0.22,4.89-0.34,7.59h-8.42c-0.65-1.47-1.44-3.23-2.2-4.95h-6.3v6.01c-2.54,0.96-4.96,1.88-7.58,2.87
		c-0.77-1.66-1.35-2.94-2.18-4.75c-1.75,0.28-3.58,0.58-5.73,0.92c0.79,10.27,2.05,19.72,10.78,26.7
		c-1.89,19.2-3.8,38.69-5.76,58.71c-9.61,6.32-12.9,16.81-15.65,27.7h-10.97c-0.13-0.68-0.35-1.3-0.35-1.91
		c0.05-13.79,0.01-27.57,0.23-41.36c0.12-7.63,2.03-14.58,8.55-19.6c2.48-1.91,2.97-4.57,2.07-7.84c-1.41-5.15-3.81-9.39-8.92-13.06
		c0.65,2.72,1.03,4.62,1.56,6.48c1.53,5.42-1.79,10.43-7.47,10.57c-2.54,0.06-5.17-0.84-7.61-1.71c-0.83-0.29-1.44-1.73-1.78-2.77
		c-0.73-2.25-1.22-4.58-1.92-7.27c-3.55,5.84-4.15,11.22-0.75,17.04c2.3,3.95,4.22,8.18,5.77,12.47c0.87,2.4,0.85,5.21,0.85,7.83
		c0,17.64-0.11,35.27-0.19,52.91c0,0.65-0.11,1.3-0.2,2.27h-18.21c-0.29-3.74-0.61-7.51-0.88-11.29
		c-0.94-12.67-1.92-25.34-2.74-38.02c-0.16-2.49,0.28-5.02,0.54-7.52c0.27-2.56,0.24-4.97-1.67-7.07c-0.54-0.59-0.78-1.64-0.78-2.48
		c-0.04-19.88-0.03-39.77-0.03-59.81c1.1-0.54,2.13-1.05,3.2-1.59c0.1-2.18,0.18-4.29,0.29-6.41c0.38-6.94,5.11-10.36,11.28-7.2
		c5.71,2.92,10.74,7.16,16.05,10.84c0.53,0.37,0.99,0.86,1.97,1.06c-0.26-0.71-0.4-1.51-0.81-2.13
		c-9.32-14.37-22.48-22.42-39.61-23.92c-1.59-0.14-3.17-0.33-4.76-0.49c-2.17-0.21-3.98,0.17-5.87,1.64
		c-4.51,3.49-9.54,2.7-14.23,0.37c-3.18-1.58-6.27-1.67-9.8-1.15c-2.3,4.96-1.97,9.89-0.31,14.96c3.13,0.97,5.98,1.2,8.97-0.29
		c1.97-0.99,4.18-1.62,6.36-2.01c8.83-1.59,12.8,4.53,13.8,10.62c0.21,1.3,0.49,2.6,0.77,4.1c0.94,0.47,1.96,0.98,3.07,1.54v61.23
		c-0.19-0.05-0.39-0.09-0.58-0.14c-0.56,2.01-1.57,4.01-1.61,6.03c-0.18,8.19,0.36,16.41-0.17,24.57
		c-0.74,11.47-2.18,22.9-3.34,34.6h-13.77v-60.9c-26.19-7.49-52.15-14.91-78.24-22.36V34.7c-4.76-2.32-9.49-4.64-14.24-6.94
		c-4.42-2.14-8.79-4.37-13.3-6.3c-1.28-0.55-3.23-0.79-4.4-0.21c-17.57,8.73-35.06,17.62-53.01,26.69v13.34
		c-0.74,0.33-1.04,0.59-1.21,0.53c-5.25-1.92-9.77,0.29-14.42,2.3c-10.09,4.37-20.28,8.54-30.42,12.79
		c-1.21,0.51-2.41,1.05-3.76,1.64c-0.11,1.61-0.22,3.14-0.36,5.22c-3.96-0.75-7.68-1.43-11.38-2.17c-3.77-0.75-7.59-1.34-11.27-2.42
		c-2.67-0.78-4.64-0.24-6.69,1.91V98.3c-4.33,1.85-8.45,3.61-12.88,5.5v21.55h-16.83v57.07h-31.24c-1.15-7.26-1.95-14.5-3.55-21.55
		c-1.12-4.94,0.07-8.39,3.91-11.45c2.17-1.72,3.83-4.07,5.94-5.88c1.56-1.33,3.5-2.21,5.21-3.38c0.89-0.61,1.64-1.4,2.46-2.11
		c-0.15-0.32-0.29-0.65-0.43-0.97c-4.51-0.88-9.02-1.76-13.52-2.65c-9.67-1.92-8.18,0.38-10.13-9.95
		c-2.48-13.13-4.56-26.33-6.78-39.5c-0.06-0.35,0.16-0.75,0.37-1.61c3.1,1.14,4.67,3.88,6.82,5.82c2.27,2.04,4.35,4.29,6.51,6.44
		c2.26,2.25,4.59,4.43,6.74,6.77c2.06,2.24,3.94,4.64,5.88,6.99c1.92,2.33,3.82,4.69,6,7.36c3.17-2.06,6.1-3.97,9.3-6.05
		c-16.42-17.88-35.27-32.68-48.61-52.78c1.92-1.81,4.09-3.85,6.48-6.1c1.1,0.72,2.48,1.62,3.93,2.58
		c14.13-13.51,28.08-26.85,42.46-40.59c-1.45-2.3-3.33-5.26-4.98-7.87c-14.12,14.1-27.98,27.93-42.36,42.3
		c0.58,3.91-4.89,4.7-6.34,8.29c-2.99-0.65-5.33-3.45-8-0.77c-2.01-2.05-3.75-3.82-5.61-5.72c0.87-1.23,1.82-2.59,2.84-4.03
		c-13.53-14.08-26.89-27.99-40.7-42.36c-2.33,1.48-5.28,3.34-7.94,5.03c14.23,14.21,28.1,28.05,42.41,42.32
		c3.47-0.55,4.52,3.58,7.4,5.73c-2.31,2.64-4.38,5.01-6.61,7.57c-1.1-0.57-2.22-1.14-3.93-2.02c-6.76,6.75-13.48,13.67-20.43,20.33
		c-6.98,6.68-14.2,13.11-21.76,20.06c1.6,2.51,3.46,5.45,5.2,8.2c12.2-12.19,24.07-24.05,35.94-35.92c2.9,1.35,4.01,2.36,3.6,4.73
		c-2.84,16.56-5.64,33.12-8.35,49.7c-0.43,2.65-1.63,3.86-4.29,4.27c-5.5,0.86-10.96,1.99-16.42,3.04
		c-0.73,0.14-1.41,0.52-2.91,1.09c1.16,1.04,1.84,1.8,2.66,2.35c1.93,1.3,4.12,2.26,5.85,3.78c2.78,2.45,5.44,5.1,7.8,7.95
		c1.17,1.4,2.38,3.55,2.17,5.18c-1.09,8.38-2.63,16.7-4.07,25.35h-26.91v-55.37c-1.15-0.76-1.98-1.31-2.85-1.88v-6.3
		c-0.98-0.34-1.91-0.67-2.99-1.04c-0.09-1.89-0.17-3.72-0.26-5.66c-1.01-0.34-1.96-0.65-2.96-0.98c-0.08-1.72-0.16-3.28-0.24-4.93
		c-1-0.39-1.94-0.75-2.9-1.12v-4.35c-0.84-0.49-1.69-0.99-2.65-1.55c-0.09-1.56-0.17-3.13-0.27-4.91c-0.92-0.37-1.84-0.73-2.89-1.15
		v-5.29c-1.08-0.42-2.01-0.78-3.12-1.21v-5.77h-6.39c-0.14,2.07-0.26,3.88-0.39,5.92c-0.82,0.36-1.73,0.76-2.66,1.17
		c-0.08,1.84-0.16,3.54-0.24,5.37c-0.9,0.31-1.72,0.58-2.68,0.91v4.92c-1.06,0.48-1.97,0.89-3.01,1.35v4.57
		c-1,0.4-1.92,0.77-2.97,1.19c-0.1,1.58-0.2,3.14-0.3,4.88c-0.96,0.34-1.9,0.67-2.92,1.03c-0.1,1.94-0.19,3.77-0.28,5.68
		c-0.96,0.32-1.81,0.61-2.82,0.95v6.11c-0.88,0.6-1.69,1.16-2.83,1.94v19.33h-6.74v-36.85c-7.96-6.08-16.13-12.31-24.37-18.59
		c-8.46,6.44-16.55,12.6-24.7,18.81c0.97,2.21,1.31,17.21,0.37,23.71h-5.47v-11.92c-7.66-1.95-12.02-6.84-14.3-13.55
		c-1.09-3.19-1.12-6.73-1.84-10.07c-0.57-2.65-1.05-5.44-2.27-7.81c-2.4-4.64-9.43-4.56-11.68,0.16c-1.2,2.51-1.81,5.43-2.09,8.23
		c-0.55,5.47-1.6,10.71-4.84,15.28c-2.68,3.78-6.08,6.59-11.15,7.56v26.32H63.58V96.3c-0.35-0.02-0.71-0.04-1.06-0.05v8.34H51.17
		c-2.56-4.27-5.38-8.88-8.08-13.56c-0.35-0.61-0.2-1.55-0.2-2.33c-0.01-11.54-0.04-23.08,0.07-34.61c0.01-1.27,0.83-2.54,1.28-3.81
		c0.38-0.06,0.76-0.12,1.14-0.18c-1.49-1.75-2.97-3.51-4.76-5.62V30.44c0.79-0.73,1.74-1.61,2.89-2.67
		c0.52-4.82-3.58-5.98-6.44-8.06c-7.32,3.49-9.8,6.64-4.21,10.8v14.06c-1.65,1.91-3.16,3.67-4.26,4.94
		c0.85,1.76,1.85,2.87,1.86,3.99c0.12,11.93,0.1,23.87,0.06,35.81c0,0.86-0.3,1.81-0.73,2.57c-2.42,4.26-4.92,8.48-7.44,12.8H11.16
		c-0.17-2.87-0.33-5.56-0.49-8.25c-0.19,0-0.37,0-0.56,0v63.82c-2.66,1.61-5.02,3.04-7.38,4.47v15.57h36.61v-19.65h11.1v19.99h16.37
		c-2.8,2.24-10.23,2.69-18.08,1.68v-19.53h-7.26c0,4.85-0.01,9.69,0,14.54c0.01,5.37,0.02,5.37-5.23,5.37
		c-10.37-0.01-20.73,0.01-31.1-0.02c-1.39,0-2.79-0.24-4.4-0.39v-18.83c2.11-1.26,4.36-2.61,7.05-4.22V93.5H13v9.09h8.19
		c2.17-3.79,4.45-7.66,6.59-11.61c0.47-0.87,0.59-2.02,0.6-3.04c0.04-11.27,0.03-22.54,0.03-33.75c-3.69-3.22-3.61-5.19,2.31-10.92
		V32.29c-6.72-6.3-3.6-9.33,1.61-12.68c1.87-1.2,3.74-3.06,6.12-1.65c3.15,1.86,7.17,3.43,7.8,7.37c0.34,2.12-1.6,4.61-2.52,6.93
		c-0.32-0.1-0.64-0.21-0.96-0.31v11.43c5.26,4.57,6.26,7.88,2.21,10.54c0,11.39-0.02,22.92,0.04,34.44
		c0.01,1.01,0.32,2.12,0.81,3.01c2.1,3.82,4.33,7.56,6.49,11.31h7.86v-9.12h5.38v51.85h5.85v-29.23c2.56,0.18,4.54,0.32,6.99,0.5
		c6.99-3.86,10.71-17.08,8.33-24.1c1.17-1.37,2.41-2.61,3.41-4.03c3.88-5.48,11.27-5.42,15.1,0.14c0.91,1.33,2.07,2.49,3.09,3.69
		c-1.3,9.59,0.72,18.09,8.58,24.41c2.23-0.24,4.21-0.46,6.93-0.75v15.12c0.37,0.04,0.74,0.08,1.11,0.13
		c0.23-0.74,0.66-1.48,0.67-2.22c0.06-5.04,0.33-10.1-0.1-15.11c-0.19-2.26-1.82-4.4-3.01-7.08c6.08,0.73,9.41-3.87,13.56-6.87
		c5.24-3.79,10.3-7.85,15.57-11.89c6.18,4.73,12.19,9.29,18.16,13.89c3.2,2.47,6.11,5.47,10.5,4.87c0.19,0.49,0.31,0.68,0.27,0.72
		c-3.77,4.05-2.82,9.07-2.85,13.87c-0.04,6.63-0.01,13.25,0.01,19.88c0,1.67,0.04,3.37,2.87,2.6v-19.33c1-0.58,1.77-1.02,2.69-1.56
		v-6.04c1.04-0.51,2.04-0.99,3.2-1.56v-5.25c1.03-0.46,1.96-0.87,3.01-1.33c0.09-1.42,0.19-2.85,0.29-4.49
		c0.86-0.42,1.76-0.85,2.79-1.35c0.07-1.39,0.13-2.84,0.21-4.55c0.8-0.35,1.71-0.75,2.82-1.23c0.11-1.59,0.22-3.28,0.35-5.14
		c0.79-0.32,1.59-0.64,2.61-1.06v-5.2c1.05-0.45,1.96-0.84,2.91-1.25v-5.12c0.92-0.39,1.82-0.78,2.85-1.22
		c0.2-0.9,0.41-1.89,0.66-3.04c1.32-0.06,2.47-0.11,3.25-0.14c1.28,1.68,2.35,3.08,3.42,4.48c0.21-0.1,0.42-0.2,0.64-0.3v5.32
		c1.02,0.38,1.95,0.72,3.04,1.13c0.08,1.7,0.16,3.39,0.25,5.35c0.84,0.34,1.74,0.71,2.79,1.13v4.93c0.92,0.41,1.72,0.76,2.69,1.19
		c0.09,1.48,0.18,3.05,0.29,4.74c0.94,0.39,1.87,0.77,2.84,1.17c0.07,1.58,0.14,3.03,0.21,4.74c0.88,0.3,1.82,0.62,2.99,1.02v5.62
		c1.12,0.39,2.06,0.72,3.2,1.11v6.32c0.93,0.54,1.69,0.98,2.68,1.56v55.78h23.21c0.79-4.73,1.58-9.4,2.33-14.09
		c0.42-2.61,0.58-5.29,1.23-7.84c0.56-2.21,0.09-3.84-1.46-5.39c-2.82-2.81-5.49-5.78-8.42-8.47c-1.2-1.1-2.87-1.8-4.44-2.34
		c-2.12-0.73-3.68-1.96-3.43-4.22c0.25-2.17,1.84-3.18,4.14-3.53c6.13-0.95,12.22-2.19,19.02-3.44c2.91-17.34,5.82-34.6,8.71-51.87
		c-0.42-0.19-0.85-0.38-1.27-0.56c-11.78,11.75-23.56,23.49-35.42,35.33c-4.93-2.85-6.4-7.83-9.39-12.47
		c16.66-11.77,29.61-27.32,44.39-41.2c1.37,0.24,2.79,0.48,4.64,0.8c1.1-1.2,2.42-2.63,3.69-4.02c-1.38-2.34-2.82-4.13-5.04-3.3
		c-15.06-15.03-29.79-29.73-44.98-44.89c2.37-1.73,4.88-3.57,7.39-5.39c1.26-0.92,2.54-1.82,3.81-2.73H244.38z"/>
	
		<path style="clip-path:url(#SVGID_00000151538799257576772640000011931158698286358702_);fill:none;stroke:#FFFFFF;stroke-width:1.5;stroke-miterlimit:10;" d="
		M244.38,0.75c4.09,5.3,7.79,10.98,12.37,15.83c9.1,9.65,18.68,18.84,28.31,28.46c-0.71,1.73-1.43,3.51-2.2,5.39
		c0.66,0.7,1.38,1.46,1.83,1.92c2.95,0.4,5.52,0.76,8.35,1.14c1.35-1.86,4.71-2.77,3.73-5.81c15-14.98,29.82-29.77,45.21-45.15
		c2.74,4.01,5.52,8.07,8.61,12.6c-17,11.87-29.92,27.49-44.94,41.54c-1.68-0.6-3.49-1.25-5.76-2.06c-0.87,0.86-1.98,1.95-3.36,3.3
		c5.17,6.32,9.72,12.69,15.08,18.29c11.02,11.49,22.47,22.57,33.8,33.87c-2.92,4.83-8.07,6.33-11.89,9
		c-9.57-10.46-18.92-20.66-28.27-30.87c-0.41,0.22-0.82,0.45-1.22,0.68c1.56,14.08,4.31,27.96,7.46,42.25
		c6.02,1.13,12.08,2.41,18.2,3.34c2.44,0.37,4.28,1.3,4.46,3.65c0.18,2.38-1.48,3.71-3.92,4.21c-1.23,0.25-2.54,0.92-3.45,1.78
		c-3.17,3.02-6.28,6.11-9.19,9.38c-0.85,0.95-1.49,2.64-1.33,3.87c0.91,6.95,2.07,13.87,3.2,20.8c0.12,0.75,0.54,1.46,0.86,2.3
		h26.75v-56.94h16.89v-20.99c4.48-1.91,8.6-3.67,12.87-5.49V80.09c2.93-2.96,5.85-4,9.86-2.92c6.25,1.68,12.68,2.72,19.38,4.1
		c0.19-1.38,0.36-2.62,0.57-4.13c8.04-3.38,16.21-6.81,24.38-10.24c4.76-2,9.52-4.02,14.29-6.03c3.39-1.43,6.67-3.51,11.02-0.88
		V46.8c19.3-9.77,38.2-19.34,57.12-28.92c10.72,5.16,21.33,10.27,32.13,15.46v64.27c26.09,7.45,52.01,14.85,78.22,22.33v60.39h9.73
		c0.52-4.54,1.1-9.08,1.55-13.64c0.83-8.43,1.85-16.86,2.27-25.32c0.28-5.66-0.35-11.37-0.53-17.06c-0.09-2.89-0.52-5.84,1.93-8.2
		c0.46-0.44,0.49-1.47,0.49-2.23c0.02-18.43,0.02-36.86,0.02-55.5c-2.89-1.43-3.81-3.87-4.1-7.03c-0.7-7.55-6.73-11.18-13.98-8.55
		c-3.36,1.22-6.51,2.63-10.3,2.19c-4.01-0.46-5.61-1.47-5.87-5.39c-0.21-3.17-0.22-6.38,0.01-9.54c0.29-4.01,1.76-5.1,5.91-5.29
		c3.09-0.14,5.97,0.18,8.83,1.6c4.13,2.05,8.27,2.41,12.24-0.86c1.11-0.92,2.93-1.42,4.4-1.39c16.07,0.35,30.69,4.57,41.77,17
		c3.59,4.02,6.48,8.66,9.89,13.29c-1.16,1.21-1.98,2.07-2.9,3.02c-4.15-3.38-7.84-6.6-11.76-9.5c-2.42-1.8-5.08-3.4-7.85-4.58
		c-5.25-2.24-8.52-0.12-8.98,5.49c-0.07,0.79-0.12,1.6-0.03,2.38c0.34,3.06-0.6,5.49-3.66,7.09c0,3.42,0,6.85,0,10.28
		c0,14.46,0.01,28.91-0.01,43.37c0,2.12,0.26,3.95,1.61,5.91c1.13,1.64,1.41,4.31,1.12,6.39c-1.47,10.48-0.61,20.89,0.39,31.31
		c0.78,8.15,1.7,16.28,2.6,24.71h14.18c0-1.56,0-2.98,0-4.39c0.01-16.05-0.11-32.1,0.09-48.14c0.09-7.17-1.74-13.65-5.98-19.29
		c-5.32-7.1-2.76-14.72,0.44-20.4c0.4-0.71,1.55-1.01,3.08-1.96c0.84,3.38,1.49,6.01,2.14,8.65c0.84,3.43,4.57,5.4,8.3,4.39
		c4.31-1.16,6.14-3.91,5.11-7.8c-0.7-2.66-1.46-5.31-2.15-7.79c1.35-1.96,2.65-1.77,4.28-0.86c5.59,3.12,10.9,13.3,9.82,19.65
		c-0.26,1.52-1.38,3.23-2.62,4.19c-5.58,4.32-8.09,10.27-8.32,16.89c-0.48,13.64-0.37,27.3-0.49,40.96
		c-0.01,0.51,0.19,1.02,0.34,1.77h7.25c0.85-2.75,1.76-5.49,2.55-8.27c1.95-6.79,5.35-12.59,10.96-17.1
		c1.18-0.95,2.17-2.76,2.33-4.27c1.79-16.99,3.41-34,5.05-51.01c0.08-0.78,0.01-1.58,0.01-2.51c-9.06-7.17-9.82-17.56-10.77-28.08
		c2.74-2.86,6.17-2.92,10.04-2.16c0.33,1.03,0.68,2.11,1.15,3.57c1.49-0.51,2.81-0.97,4.3-1.48v-6.62c3.31-0.21,6.4-0.41,9.63-0.62
		c1.15,1.9,2.16,3.57,3.31,5.47h3.82c0.35-2.49,0.68-4.82,1.07-7.6h11.93c0.22,2.67,0.42,5,0.63,7.53c1.45,0.13,2.73,0.24,4,0.36
		c1.09-1.93,2.1-3.72,3.23-5.72c3.27,0.17,6.4,0.33,9.81,0.51v6.53c1.33,0.58,2.49,1.08,3.88,1.69c0.59-1.3,1.11-2.45,1.92-4.25
		c3.03,0.49,6.18,0.99,9.62,1.54c-0.77,11.5-1.7,22.12-10.79,29.58c1.84,18.72,3.65,37.17,5.52,56.24
		c9.8,5.97,12.62,16.54,15.41,27.12c1.34,5.08,2.6,10.18,4.01,15.73h-33.25c-0.73-4.37-1.2-8.81-2.27-13.09
		c-1.57-6.28-4.67-11.77-9.91-15.85c-5.56-4.33-11.29-4.22-16.56,0.45c-6.48,5.74-9.51,13.18-10.37,21.61
		c-0.22,2.2-0.23,4.43-0.34,6.52c-5.13,1.32-16.15,0.9-19.01-1.12h16.2c0.64-4.06,0.98-7.72,1.82-11.25
		c1.63-6.82,4.64-13,10.16-17.54c7.17-5.91,14.64-5.49,21.32,0.99c6.7,6.5,9.5,14.74,10.48,23.77c0.11,1.05,0.1,2.11,0.17,3.46
		h29.01c-4.51-14.52-5.2-30.36-18.86-39.8c-1.93-19.6-3.82-38.83-5.72-58.23c8.07-9.3,11.02-16.63,10.51-27
		c-1.7-0.35-3.54-0.73-5.5-1.14c-0.73,1.74-1.27,3.03-2.04,4.86c-2.52-0.91-4.92-1.77-7.43-2.68v-6.18
		c-2.15-0.11-4.08-0.21-6.3-0.33c-0.88,1.86-1.69,3.6-2.52,5.36h-8.38c-0.13-2.64-0.25-4.97-0.38-7.67h-8.35
		c-0.12,2.58-0.22,4.89-0.34,7.59h-8.42c-0.65-1.47-1.44-3.23-2.2-4.95h-6.3v6.01c-2.54,0.96-4.96,1.88-7.58,2.87
		c-0.77-1.66-1.35-2.94-2.18-4.75c-1.75,0.28-3.58,0.58-5.73,0.92c0.79,10.27,2.05,19.72,10.78,26.7
		c-1.89,19.2-3.8,38.69-5.76,58.71c-9.61,6.32-12.9,16.81-15.65,27.7h-10.97c-0.13-0.68-0.35-1.3-0.35-1.91
		c0.05-13.79,0.01-27.57,0.23-41.36c0.12-7.63,2.03-14.58,8.55-19.6c2.48-1.91,2.97-4.57,2.07-7.84c-1.41-5.15-3.81-9.39-8.92-13.06
		c0.65,2.72,1.03,4.62,1.56,6.48c1.53,5.42-1.79,10.43-7.47,10.57c-2.54,0.06-5.17-0.84-7.61-1.71c-0.83-0.29-1.44-1.73-1.78-2.77
		c-0.73-2.25-1.22-4.58-1.92-7.27c-3.55,5.84-4.15,11.22-0.75,17.04c2.3,3.95,4.22,8.18,5.77,12.47c0.87,2.4,0.85,5.21,0.85,7.83
		c0,17.64-0.11,35.27-0.19,52.91c0,0.65-0.11,1.3-0.2,2.27h-18.21c-0.29-3.74-0.61-7.51-0.88-11.29
		c-0.94-12.67-1.92-25.34-2.74-38.02c-0.16-2.49,0.28-5.02,0.54-7.52c0.27-2.56,0.24-4.97-1.67-7.07c-0.54-0.59-0.78-1.64-0.78-2.48
		c-0.04-19.88-0.03-39.77-0.03-59.81c1.1-0.54,2.13-1.05,3.2-1.59c0.1-2.18,0.18-4.29,0.29-6.41c0.38-6.94,5.11-10.36,11.28-7.2
		c5.71,2.92,10.74,7.16,16.05,10.84c0.53,0.37,0.99,0.86,1.97,1.06c-0.26-0.71-0.4-1.51-0.81-2.13
		c-9.32-14.37-22.48-22.42-39.61-23.92c-1.59-0.14-3.17-0.33-4.76-0.49c-2.17-0.21-3.98,0.17-5.87,1.64
		c-4.51,3.49-9.54,2.7-14.23,0.37c-3.18-1.58-6.27-1.67-9.8-1.15c-2.3,4.96-1.97,9.89-0.31,14.96c3.13,0.97,5.98,1.2,8.97-0.29
		c1.97-0.99,4.18-1.62,6.36-2.01c8.83-1.59,12.8,4.53,13.8,10.62c0.21,1.3,0.49,2.6,0.77,4.1c0.94,0.47,1.96,0.98,3.07,1.54v61.23
		c-0.19-0.05-0.39-0.09-0.58-0.14c-0.56,2.01-1.57,4.01-1.61,6.03c-0.18,8.19,0.36,16.41-0.17,24.57
		c-0.74,11.47-2.18,22.9-3.34,34.6h-13.77v-60.9c-26.19-7.49-52.15-14.91-78.24-22.36V34.7c-4.76-2.32-9.49-4.64-14.24-6.94
		c-4.42-2.14-8.79-4.37-13.3-6.3c-1.28-0.55-3.23-0.79-4.4-0.21c-17.57,8.73-35.06,17.62-53.01,26.69v13.34
		c-0.74,0.33-1.04,0.59-1.21,0.53c-5.25-1.92-9.77,0.29-14.42,2.3c-10.09,4.37-20.28,8.54-30.42,12.79
		c-1.21,0.51-2.41,1.05-3.76,1.64c-0.11,1.61-0.22,3.14-0.36,5.22c-3.96-0.75-7.68-1.43-11.38-2.17c-3.77-0.75-7.59-1.34-11.27-2.42
		c-2.67-0.78-4.64-0.24-6.69,1.91V98.3c-4.33,1.85-8.45,3.61-12.88,5.5v21.55h-16.83v57.07h-31.24c-1.15-7.26-1.95-14.5-3.55-21.55
		c-1.12-4.94,0.07-8.39,3.91-11.45c2.17-1.72,3.83-4.07,5.94-5.88c1.56-1.33,3.5-2.21,5.21-3.38c0.89-0.61,1.64-1.4,2.46-2.11
		c-0.15-0.32-0.29-0.65-0.43-0.97c-4.51-0.88-9.02-1.76-13.52-2.65c-9.67-1.92-8.18,0.38-10.13-9.95
		c-2.48-13.13-4.56-26.33-6.78-39.5c-0.06-0.35,0.16-0.75,0.37-1.61c3.1,1.14,4.67,3.88,6.82,5.82c2.27,2.04,4.35,4.29,6.51,6.44
		c2.26,2.25,4.59,4.43,6.74,6.77c2.06,2.24,3.94,4.64,5.88,6.99c1.92,2.33,3.82,4.69,6,7.36c3.17-2.06,6.1-3.97,9.3-6.05
		c-16.42-17.88-35.27-32.68-48.61-52.78c1.92-1.81,4.09-3.85,6.48-6.1c1.1,0.72,2.48,1.62,3.93,2.58
		c14.13-13.51,28.08-26.85,42.46-40.59c-1.45-2.3-3.33-5.26-4.98-7.87c-14.12,14.1-27.98,27.93-42.36,42.3
		c0.58,3.91-4.89,4.7-6.34,8.29c-2.99-0.65-5.33-3.45-8-0.77c-2.01-2.05-3.75-3.82-5.61-5.72c0.87-1.23,1.82-2.59,2.84-4.03
		c-13.53-14.08-26.89-27.99-40.7-42.36c-2.33,1.48-5.28,3.34-7.94,5.03c14.23,14.21,28.1,28.05,42.41,42.32
		c3.47-0.55,4.52,3.58,7.4,5.73c-2.31,2.64-4.38,5.01-6.61,7.57c-1.1-0.57-2.22-1.14-3.93-2.02c-6.76,6.75-13.48,13.67-20.43,20.33
		c-6.98,6.68-14.2,13.11-21.76,20.06c1.6,2.51,3.46,5.45,5.2,8.2c12.2-12.19,24.07-24.05,35.94-35.92c2.9,1.35,4.01,2.36,3.6,4.73
		c-2.84,16.56-5.64,33.12-8.35,49.7c-0.43,2.65-1.63,3.86-4.29,4.27c-5.5,0.86-10.96,1.99-16.42,3.04
		c-0.73,0.14-1.41,0.52-2.91,1.09c1.16,1.04,1.84,1.8,2.66,2.35c1.93,1.3,4.12,2.26,5.85,3.78c2.78,2.45,5.44,5.1,7.8,7.95
		c1.17,1.4,2.38,3.55,2.17,5.18c-1.09,8.38-2.63,16.7-4.07,25.35h-26.91v-55.37c-1.15-0.76-1.98-1.31-2.85-1.88v-6.3
		c-0.98-0.34-1.91-0.67-2.99-1.04c-0.09-1.89-0.17-3.72-0.26-5.66c-1.01-0.34-1.96-0.65-2.96-0.98c-0.08-1.72-0.16-3.28-0.24-4.93
		c-1-0.39-1.94-0.75-2.9-1.12v-4.35c-0.84-0.49-1.69-0.99-2.65-1.55c-0.09-1.56-0.17-3.13-0.27-4.91c-0.92-0.37-1.84-0.73-2.89-1.15
		v-5.29c-1.08-0.42-2.01-0.78-3.12-1.21v-5.77h-6.39c-0.14,2.07-0.26,3.88-0.39,5.92c-0.82,0.36-1.73,0.76-2.66,1.17
		c-0.08,1.84-0.16,3.54-0.24,5.37c-0.9,0.31-1.72,0.58-2.68,0.91v4.92c-1.06,0.48-1.97,0.89-3.01,1.35v4.57
		c-1,0.4-1.92,0.77-2.97,1.19c-0.1,1.58-0.2,3.14-0.3,4.88c-0.96,0.34-1.9,0.67-2.92,1.03c-0.1,1.94-0.19,3.77-0.28,5.68
		c-0.96,0.32-1.81,0.61-2.82,0.95v6.11c-0.88,0.6-1.69,1.16-2.83,1.94v19.33h-6.74v-36.85c-7.96-6.08-16.13-12.31-24.37-18.59
		c-8.46,6.44-16.55,12.6-24.7,18.81c0.97,2.21,1.31,17.21,0.37,23.71h-5.47v-11.92c-7.66-1.95-12.02-6.84-14.3-13.55
		c-1.09-3.19-1.12-6.73-1.84-10.07c-0.57-2.65-1.05-5.44-2.27-7.81c-2.4-4.64-9.43-4.56-11.68,0.16c-1.2,2.51-1.81,5.43-2.09,8.23
		c-0.55,5.47-1.6,10.71-4.84,15.28c-2.68,3.78-6.08,6.59-11.15,7.56v26.32H63.58V96.3c-0.35-0.02-0.71-0.04-1.06-0.05v8.34H51.17
		c-2.56-4.27-5.38-8.88-8.08-13.56c-0.35-0.61-0.2-1.55-0.2-2.33c-0.01-11.54-0.04-23.08,0.07-34.61c0.01-1.27,0.83-2.54,1.28-3.81
		c0.38-0.06,0.76-0.12,1.14-0.18c-1.49-1.75-2.97-3.51-4.76-5.62V30.44c0.79-0.73,1.74-1.61,2.89-2.67
		c0.52-4.82-3.58-5.98-6.44-8.06c-7.32,3.49-9.8,6.64-4.21,10.8v14.06c-1.65,1.91-3.16,3.67-4.26,4.94
		c0.85,1.76,1.85,2.87,1.86,3.99c0.12,11.93,0.1,23.87,0.06,35.81c0,0.86-0.3,1.81-0.73,2.57c-2.42,4.26-4.92,8.48-7.44,12.8H11.16
		c-0.17-2.87-0.33-5.56-0.49-8.25c-0.19,0-0.37,0-0.56,0v63.82c-2.66,1.61-5.02,3.04-7.38,4.47v15.57h36.61v-19.65h11.1v19.99h16.37
		c-2.8,2.24-10.23,2.69-18.08,1.68v-19.53h-7.26c0,4.85-0.01,9.69,0,14.54c0.01,5.37,0.02,5.37-5.23,5.37
		c-10.37-0.01-20.73,0.01-31.1-0.02c-1.39,0-2.79-0.24-4.4-0.39v-18.83c2.11-1.26,4.36-2.61,7.05-4.22V93.5H13v9.09h8.19
		c2.17-3.79,4.45-7.66,6.59-11.61c0.47-0.87,0.59-2.02,0.6-3.04c0.04-11.27,0.03-22.54,0.03-33.75c-3.69-3.22-3.61-5.19,2.31-10.92
		V32.29c-6.72-6.3-3.6-9.33,1.61-12.68c1.87-1.2,3.74-3.06,6.12-1.65c3.15,1.86,7.17,3.43,7.8,7.37c0.34,2.12-1.6,4.61-2.52,6.93
		c-0.32-0.1-0.64-0.21-0.96-0.31v11.43c5.26,4.57,6.26,7.88,2.21,10.54c0,11.39-0.02,22.92,0.04,34.44
		c0.01,1.01,0.32,2.12,0.81,3.01c2.1,3.82,4.33,7.56,6.49,11.31h7.86v-9.12h5.38v51.85h5.85v-29.23c2.56,0.18,4.54,0.32,6.99,0.5
		c6.99-3.86,10.71-17.08,8.33-24.1c1.17-1.37,2.41-2.61,3.41-4.03c3.88-5.48,11.27-5.42,15.1,0.14c0.91,1.33,2.07,2.49,3.09,3.69
		c-1.3,9.59,0.72,18.09,8.58,24.41c2.23-0.24,4.21-0.46,6.93-0.75v15.12c0.37,0.04,0.74,0.08,1.11,0.13
		c0.23-0.74,0.66-1.48,0.67-2.22c0.06-5.04,0.33-10.1-0.1-15.11c-0.19-2.26-1.82-4.4-3.01-7.08c6.08,0.73,9.41-3.87,13.56-6.87
		c5.24-3.79,10.3-7.85,15.57-11.89c6.18,4.73,12.19,9.29,18.16,13.89c3.2,2.47,6.11,5.47,10.5,4.87c0.19,0.49,0.31,0.68,0.27,0.72
		c-3.77,4.05-2.82,9.07-2.85,13.87c-0.04,6.63-0.01,13.25,0.01,19.88c0,1.67,0.04,3.37,2.87,2.6v-19.33c1-0.58,1.77-1.02,2.69-1.56
		v-6.04c1.04-0.51,2.04-0.99,3.2-1.56v-5.25c1.03-0.46,1.96-0.87,3.01-1.33c0.09-1.42,0.19-2.85,0.29-4.49
		c0.86-0.42,1.76-0.85,2.79-1.35c0.07-1.39,0.13-2.84,0.21-4.55c0.8-0.35,1.71-0.75,2.82-1.23c0.11-1.59,0.22-3.28,0.35-5.14
		c0.79-0.32,1.59-0.64,2.61-1.06v-5.2c1.05-0.45,1.96-0.84,2.91-1.25v-5.12c0.92-0.39,1.82-0.78,2.85-1.22
		c0.2-0.9,0.41-1.89,0.66-3.04c1.32-0.06,2.47-0.11,3.25-0.14c1.28,1.68,2.35,3.08,3.42,4.48c0.21-0.1,0.42-0.2,0.64-0.3v5.32
		c1.02,0.38,1.95,0.72,3.04,1.13c0.08,1.7,0.16,3.39,0.25,5.35c0.84,0.34,1.74,0.71,2.79,1.13v4.93c0.92,0.41,1.72,0.76,2.69,1.19
		c0.09,1.48,0.18,3.05,0.29,4.74c0.94,0.39,1.87,0.77,2.84,1.17c0.07,1.58,0.14,3.03,0.21,4.74c0.88,0.3,1.82,0.62,2.99,1.02v5.62
		c1.12,0.39,2.06,0.72,3.2,1.11v6.32c0.93,0.54,1.69,0.98,2.68,1.56v55.78h23.21c0.79-4.73,1.58-9.4,2.33-14.09
		c0.42-2.61,0.58-5.29,1.23-7.84c0.56-2.21,0.09-3.84-1.46-5.39c-2.82-2.81-5.49-5.78-8.42-8.47c-1.2-1.1-2.87-1.8-4.44-2.34
		c-2.12-0.73-3.68-1.96-3.43-4.22c0.25-2.17,1.84-3.18,4.14-3.53c6.13-0.95,12.22-2.19,19.02-3.44c2.91-17.34,5.82-34.6,8.71-51.87
		c-0.42-0.19-0.85-0.38-1.27-0.56c-11.78,11.75-23.56,23.49-35.42,35.33c-4.93-2.85-6.4-7.83-9.39-12.47
		c16.66-11.77,29.61-27.32,44.39-41.2c1.37,0.24,2.79,0.48,4.64,0.8c1.1-1.2,2.42-2.63,3.69-4.02c-1.38-2.34-2.82-4.13-5.04-3.3
		c-15.06-15.03-29.79-29.73-44.98-44.89c2.37-1.73,4.88-3.57,7.39-5.39c1.26-0.92,2.54-1.82,3.81-2.73H244.38z"/>
	<path style="clip-path:url(#SVGID_00000151538799257576772640000011931158698286358702_);fill:#FFFFFF;" d="M790.4,232.77h-15.39
		v-17.01h15.19c1.89,0,3.5,0.75,4.83,2.26c1.33,1.51,1.99,3.34,1.99,5.5c0,1.71-0.32,3.25-0.95,4.62c-0.63,1.37-1.45,2.46-2.46,3.27
		C792.59,232.23,791.52,232.68,790.4,232.77 M804.3,251.4c-0.77-0.4-1.26-1.07-1.48-1.99c-0.23-0.92-0.43-2.67-0.61-5.23
		c-0.09-2.03-0.62-3.8-1.59-5.33c-0.97-1.53-2.28-2.72-3.95-3.58c2.11-1.08,3.85-2.71,5.2-4.89c1.35-2.18,2.02-4.53,2.02-7.05
		c0-2.61-0.61-4.96-1.82-7.05c-1.22-2.09-2.84-3.73-4.86-4.93c-2.03-1.19-4.25-1.79-6.68-1.79h-18.97c-0.9,0-1.67,0.32-2.29,0.95
		c-0.63,0.63-0.95,1.39-0.95,2.29v40.77c0,0.9,0.37,1.67,1.11,2.29c0.74,0.63,1.63,0.95,2.67,0.95c0.85,0,1.55-0.3,2.09-0.91
		c0.54-0.61,0.81-1.38,0.81-2.33v-15.19h13.64c2.16,0,3.91,0.54,5.26,1.62c1.35,1.08,2.03,2.75,2.03,4.99
		c0,3.33,0.43,5.85,1.28,7.56c0.85,1.71,1.96,2.95,3.31,3.71c0.59,0.36,1.31,0.54,2.16,0.54s1.59-0.23,2.19-0.68
		c0.61-0.45,0.91-1.15,0.91-2.09c0-0.49-0.14-0.98-0.4-1.45C805.11,252.11,804.75,251.72,804.3,251.4 M740.85,219.88l7.9,18.9
		h-15.73L740.85,219.88z M761.3,252.62l-17.15-41.18c-0.23-0.68-0.61-1.19-1.15-1.55c-0.54-0.36-1.15-0.54-1.82-0.54
		c-0.72-0.09-1.36,0.06-1.92,0.44c-0.56,0.38-1,0.93-1.32,1.65l-17.21,41.71c-0.09,0.54-0.14,0.9-0.14,1.08
		c0,0.85,0.25,1.53,0.74,2.02c0.49,0.5,1.21,0.74,2.16,0.74c0.63,0,1.2-0.18,1.72-0.54c0.52-0.36,0.89-0.88,1.11-1.55l4.12-9.99
		h20.86l4.18,9.92c0.31,0.68,0.73,1.21,1.25,1.59c0.52,0.38,1.09,0.57,1.72,0.57c0.81,0,1.52-0.29,2.13-0.88
		c0.61-0.58,0.91-1.33,0.91-2.23C761.51,253.45,761.44,253.02,761.3,252.62 M697.52,219.88l7.9,18.9h-15.73L697.52,219.88z
		 M717.97,252.62l-17.15-41.18c-0.23-0.68-0.61-1.19-1.15-1.55c-0.54-0.36-1.15-0.54-1.82-0.54c-0.72-0.09-1.36,0.06-1.92,0.44
		c-0.56,0.38-1,0.93-1.32,1.65l-17.21,41.71c-0.09,0.54-0.14,0.9-0.14,1.08c0,0.85,0.25,1.53,0.74,2.02
		c0.49,0.5,1.21,0.74,2.16,0.74c0.63,0,1.2-0.18,1.72-0.54c0.52-0.36,0.89-0.88,1.11-1.55l4.12-9.99h20.86l4.18,9.92
		c0.31,0.68,0.73,1.21,1.25,1.59c0.52,0.38,1.09,0.57,1.72,0.57c0.81,0,1.52-0.29,2.13-0.88c0.61-0.58,0.91-1.33,0.91-2.23
		C718.17,253.45,718.1,253.02,717.97,252.62 M667.21,209.49c-1.08,0-1.98,0.5-2.7,1.48l-16.2,24.23l-16-24.23
		c-0.32-0.45-0.73-0.81-1.25-1.08c-0.52-0.27-1.05-0.4-1.59-0.4c-0.95,0-1.73,0.33-2.36,0.98c-0.63,0.65-0.95,1.41-0.95,2.26v40.84
		c0,0.95,0.28,1.72,0.84,2.33c0.56,0.61,1.29,0.91,2.19,0.91c0.95,0,1.7-0.3,2.26-0.91c0.56-0.61,0.84-1.38,0.84-2.33V221.7
		l13.16,20.45c0.31,0.4,0.71,0.74,1.18,1.01c0.47,0.27,0.93,0.38,1.38,0.34c0.49,0.05,0.98-0.07,1.45-0.34
		c0.47-0.27,0.87-0.61,1.18-1.01l13.1-19.84v31.25c0,0.95,0.31,1.72,0.95,2.33c0.63,0.61,1.44,0.91,2.43,0.91
		c0.99,0,1.79-0.31,2.4-0.95c0.61-0.63,0.91-1.39,0.91-2.29v-40.84c0-0.9-0.32-1.65-0.95-2.26
		C668.87,209.86,668.11,209.53,667.21,209.49 M617.33,251.34l-16.67-21.53l16-15.12c0.63-0.72,0.95-1.42,0.95-2.09
		c0-0.76-0.29-1.49-0.88-2.16c-0.59-0.68-1.28-1.01-2.09-1.01c-0.85,0-1.71,0.38-2.56,1.15l-23.96,23.22v-20.99
		c0-0.94-0.3-1.72-0.91-2.33c-0.61-0.61-1.41-0.91-2.4-0.91c-0.99,0-1.8,0.32-2.43,0.95c-0.63,0.63-0.94,1.39-0.94,2.29v40.7
		c0,0.94,0.3,1.73,0.91,2.36c0.61,0.63,1.41,0.95,2.4,0.95c0.99,0,1.8-0.31,2.43-0.95c0.63-0.63,0.95-1.42,0.95-2.36v-11.75
		l7.56-7.15l16.4,21.13c0.67,0.81,1.46,1.22,2.36,1.22c0.94,0,1.79-0.31,2.53-0.95c0.74-0.63,1.11-1.44,1.11-2.43
		C618.07,252.71,617.82,251.97,617.33,251.34 M570.35,250.53h-19.37v-37.73c0-0.9-0.33-1.66-0.98-2.29
		c-0.65-0.63-1.43-0.95-2.33-0.95c-0.99,0-1.8,0.32-2.43,0.95c-0.63,0.63-0.95,1.39-0.95,2.29v40.77c0,0.9,0.3,1.67,0.91,2.29
		c0.61,0.63,1.38,0.95,2.33,0.95h22.82c0.95,0,1.72-0.29,2.33-0.88c0.61-0.58,0.91-1.33,0.91-2.23c0-0.94-0.3-1.71-0.91-2.29
		C572.07,250.82,571.29,250.53,570.35,250.53 M516.82,219.88l7.9,18.9h-15.73L516.82,219.88z M537.27,252.62l-17.15-41.18
		c-0.22-0.68-0.61-1.19-1.15-1.55c-0.54-0.36-1.15-0.54-1.82-0.54c-0.72-0.09-1.36,0.06-1.92,0.44c-0.56,0.38-1,0.93-1.32,1.65
		l-17.21,41.71c-0.09,0.54-0.14,0.9-0.14,1.08c0,0.85,0.25,1.53,0.74,2.02c0.49,0.5,1.21,0.74,2.16,0.74c0.63,0,1.2-0.18,1.72-0.54
		c0.52-0.36,0.89-0.88,1.11-1.55l4.12-9.99h20.86l4.18,9.92c0.32,0.68,0.73,1.21,1.25,1.59c0.52,0.38,1.09,0.57,1.72,0.57
		c0.81,0,1.52-0.29,2.13-0.88c0.61-0.58,0.91-1.33,0.91-2.23C537.48,253.45,537.41,253.02,537.27,252.62 M473.42,251.34
		l-16.67-21.53l16-15.12c0.63-0.72,0.95-1.42,0.95-2.09c0-0.76-0.29-1.49-0.88-2.16c-0.59-0.68-1.28-1.01-2.09-1.01
		c-0.86,0-1.71,0.38-2.57,1.15l-23.96,23.22v-20.99c0-0.94-0.3-1.72-0.91-2.33c-0.61-0.61-1.41-0.91-2.4-0.91
		c-0.99,0-1.8,0.32-2.43,0.95c-0.63,0.63-0.94,1.39-0.94,2.29v40.7c0,0.94,0.3,1.73,0.91,2.36c0.61,0.63,1.4,0.95,2.4,0.95
		c0.99,0,1.8-0.31,2.43-0.95c0.63-0.63,0.94-1.42,0.94-2.36v-11.75l7.56-7.15l16.4,21.13c0.67,0.81,1.46,1.22,2.36,1.22
		c0.95,0,1.79-0.31,2.53-0.95c0.74-0.63,1.11-1.44,1.11-2.43C474.16,252.71,473.91,251.97,473.42,251.34 M425.76,250.59h-20.05
		v-14.92h17.01c0.95,0,1.72-0.27,2.33-0.81c0.61-0.54,0.91-1.28,0.91-2.23c0-0.9-0.3-1.64-0.91-2.23c-0.61-0.58-1.38-0.88-2.33-0.88
		h-17.01v-13.77h20.05c0.95,0,1.72-0.28,2.33-0.84c0.61-0.56,0.91-1.29,0.91-2.19c0-0.95-0.3-1.71-0.91-2.29
		c-0.61-0.58-1.38-0.88-2.33-0.88h-23.49c-0.9,0-1.67,0.32-2.3,0.95c-0.63,0.63-0.94,1.39-0.94,2.29v40.77
		c0,0.9,0.31,1.67,0.94,2.29c0.63,0.63,1.39,0.95,2.3,0.95h23.49c0.95,0,1.72-0.28,2.33-0.84c0.61-0.56,0.91-1.29,0.91-2.19
		c0-0.85-0.3-1.6-0.91-2.23C427.49,250.91,426.71,250.59,425.76,250.59 M387.83,253.5v-40.7c0-0.9-0.33-1.66-0.98-2.29
		c-0.65-0.63-1.43-0.95-2.33-0.95c-0.99,0-1.8,0.32-2.43,0.95c-0.63,0.63-0.94,1.39-0.94,2.29v40.7c0,0.94,0.3,1.73,0.91,2.36
		c0.61,0.63,1.41,0.95,2.4,0.95c0.9,0,1.69-0.31,2.36-0.95C387.49,255.23,387.83,254.44,387.83,253.5 M357.32,232.77h-15.39v-17.01
		h15.19c1.89,0,3.5,0.75,4.83,2.26c1.33,1.51,1.99,3.34,1.99,5.5c0,1.71-0.32,3.25-0.95,4.62c-0.63,1.37-1.45,2.46-2.46,3.27
		C359.51,232.23,358.44,232.68,357.32,232.77 M371.22,251.4c-0.77-0.4-1.26-1.07-1.49-1.99c-0.23-0.92-0.43-2.67-0.61-5.23
		c-0.09-2.03-0.62-3.8-1.59-5.33c-0.97-1.53-2.29-2.72-3.95-3.58c2.11-1.08,3.85-2.71,5.2-4.89c1.35-2.18,2.03-4.53,2.03-7.05
		c0-2.61-0.61-4.96-1.82-7.05c-1.21-2.09-2.83-3.73-4.86-4.93c-2.02-1.19-4.25-1.79-6.68-1.79h-18.97c-0.9,0-1.67,0.32-2.3,0.95
		c-0.63,0.63-0.95,1.39-0.95,2.29v40.77c0,0.9,0.37,1.67,1.11,2.29c0.74,0.63,1.63,0.95,2.67,0.95c0.85,0,1.55-0.3,2.09-0.91
		c0.54-0.61,0.81-1.38,0.81-2.33v-15.19h13.64c2.16,0,3.91,0.54,5.26,1.62c1.35,1.08,2.02,2.75,2.02,4.99
		c0,3.33,0.43,5.85,1.28,7.56c0.85,1.71,1.96,2.95,3.31,3.71c0.58,0.36,1.3,0.54,2.16,0.54c0.86,0,1.59-0.23,2.19-0.68
		c0.61-0.45,0.91-1.15,0.91-2.09c0-0.49-0.14-0.98-0.4-1.45C372.03,252.11,371.67,251.72,371.22,251.4 M311.69,250.59h-13.64v-15.19
		h13.3c5.67,0,8.51,2.5,8.51,7.49c0,2.57-0.74,4.49-2.23,5.77C316.14,249.95,314.16,250.59,311.69,250.59 M317.36,222.38
		c0,2.12-0.61,3.75-1.82,4.89c-1.21,1.15-2.74,1.74-4.59,1.79h-12.89V215.9h12.76c2.07,0,3.68,0.55,4.83,1.65
		C316.79,218.66,317.36,220.26,317.36,222.38 M318.24,231.02c1.98-0.9,3.49-2.19,4.52-3.88c1.04-1.69,1.55-3.61,1.55-5.77
		c0-3.82-1.07-6.75-3.21-8.77c-2.14-2.03-5.26-3.04-9.35-3.04h-17.35c-0.9,0-1.67,0.32-2.3,0.95c-0.63,0.63-0.95,1.39-0.95,2.29
		v40.77c0,0.9,0.32,1.67,0.95,2.29c0.63,0.63,1.39,0.95,2.3,0.95h17.35c4.18,0,7.73-1.07,10.63-3.21c2.9-2.14,4.35-5.7,4.35-10.7
		c0-3.15-0.8-5.7-2.4-7.66C322.75,233.28,320.71,231.87,318.24,231.02 M263.7,219.88l7.9,18.9h-15.73L263.7,219.88z M284.15,252.62
		L267,211.44c-0.23-0.68-0.61-1.19-1.15-1.55c-0.54-0.36-1.15-0.54-1.82-0.54c-0.72-0.09-1.36,0.06-1.92,0.44
		c-0.56,0.38-1,0.93-1.32,1.65l-17.21,41.71c-0.09,0.54-0.13,0.9-0.13,1.08c0,0.85,0.25,1.53,0.74,2.02
		c0.49,0.5,1.21,0.74,2.16,0.74c0.63,0,1.2-0.18,1.72-0.54c0.52-0.36,0.89-0.88,1.11-1.55l4.12-9.99h20.86l4.19,9.92
		c0.31,0.68,0.73,1.21,1.25,1.59c0.52,0.38,1.09,0.57,1.72,0.57c0.81,0,1.52-0.29,2.13-0.88c0.61-0.58,0.91-1.33,0.91-2.23
		C284.35,253.45,284.28,253.02,284.15,252.62 M238.18,215.76c0.9,0,1.66-0.3,2.29-0.91c0.63-0.61,0.94-1.32,0.94-2.13
		c0-0.95-0.3-1.71-0.91-2.29c-0.61-0.58-1.38-0.88-2.33-0.88h-23.02c-0.9,0-1.67,0.32-2.3,0.95c-0.63,0.63-0.94,1.39-0.94,2.29
		v40.77c0,0.9,0.31,1.67,0.94,2.29c0.63,0.63,1.42,0.95,2.36,0.95c0.9,0,1.68-0.31,2.33-0.95c0.65-0.63,0.98-1.39,0.98-2.29v-17.68
		h16.6c0.94,0,1.72-0.29,2.33-0.88c0.61-0.58,0.91-1.28,0.91-2.09c0-0.94-0.3-1.71-0.91-2.29c-0.61-0.58-1.38-0.88-2.33-0.88h-16.6
		v-13.97H238.18z M186.95,257.48c3.01,0,5.78-0.56,8.3-1.69c2.52-1.12,4.51-2.7,5.97-4.73c1.46-2.02,2.19-4.34,2.19-6.95
		c0-2.97-0.61-5.38-1.82-7.22c-1.22-1.84-2.94-3.28-5.16-4.32c-2.23-1.03-5.1-1.93-8.61-2.7c-3.51-0.81-6.15-1.8-7.93-2.97
		c-1.78-1.17-2.67-2.86-2.67-5.06c0-2.03,0.89-3.66,2.67-4.89c1.78-1.24,4.17-1.86,7.19-1.86c1.89,0,3.87,0.4,5.94,1.21
		c2.07,0.81,3.69,1.8,4.86,2.97c0.4,0.36,0.92,0.54,1.55,0.54c0.85,0,1.59-0.31,2.19-0.94c0.61-0.63,0.91-1.35,0.91-2.16
		c0-1.04-0.52-2-1.55-2.9c-1.53-1.49-3.53-2.68-6.01-3.58c-2.48-0.9-5.11-1.35-7.9-1.35c-3.1,0-5.9,0.54-8.37,1.62
		c-2.48,1.08-4.41,2.62-5.81,4.62c-1.4,2-2.09,4.33-2.09,6.99c0,3.83,1.25,6.82,3.75,8.98c2.5,2.16,6.06,3.71,10.7,4.66
		c3.92,0.85,6.83,1.92,8.74,3.21c1.91,1.28,2.89,3.1,2.94,5.43c0,1.98-0.98,3.62-2.94,4.93c-1.96,1.31-4.35,1.96-7.19,1.96
		c-2.43,0-4.6-0.39-6.51-1.18c-1.91-0.79-3.77-2.01-5.57-3.68c-0.54-0.49-1.19-0.74-1.96-0.74c-0.86,0-1.6,0.33-2.23,0.98
		c-0.63,0.65-0.95,1.38-0.95,2.19c0,1.04,0.47,1.96,1.42,2.77c2.3,2.07,4.7,3.57,7.22,4.49
		C180.76,257.02,183.67,257.48,186.95,257.48 M143.41,250.59h-12.49v-34.83h12.49c4.54,0,7.98,1.64,10.29,4.93
		c2.32,3.29,3.48,7.45,3.48,12.49c0,5.09-1.15,9.26-3.44,12.52C151.45,248.96,148,250.59,143.41,250.59 M144.09,209.55h-16.61
		c-0.9,0-1.67,0.32-2.29,0.95c-0.63,0.63-0.94,1.39-0.94,2.29v40.77c0,0.9,0.32,1.67,0.94,2.29c0.63,0.63,1.39,0.95,2.29,0.95h16.61
		c4.23,0,7.85-1.05,10.87-3.14c3.01-2.09,5.29-4.93,6.82-8.5c1.53-3.58,2.3-7.57,2.3-11.98c0-4.36-0.76-8.34-2.3-11.91
		c-1.53-3.58-3.8-6.42-6.82-8.54C151.94,210.61,148.32,209.55,144.09,209.55 M96.77,219.88l7.9,18.9H88.94L96.77,219.88z
		 M117.22,252.62l-17.14-41.18c-0.23-0.68-0.61-1.19-1.15-1.55c-0.54-0.36-1.15-0.54-1.82-0.54c-0.72-0.09-1.36,0.06-1.92,0.44
		c-0.56,0.38-1,0.93-1.32,1.65l-17.21,41.71c-0.09,0.54-0.13,0.9-0.13,1.08c0,0.85,0.25,1.53,0.74,2.02
		c0.49,0.5,1.22,0.74,2.16,0.74c0.63,0,1.2-0.18,1.72-0.54c0.52-0.36,0.89-0.88,1.11-1.55l4.12-9.99h20.86l4.19,9.92
		c0.31,0.68,0.73,1.21,1.25,1.59c0.52,0.38,1.09,0.57,1.72,0.57c0.81,0,1.52-0.29,2.13-0.88c0.61-0.58,0.91-1.33,0.91-2.23
		C117.43,253.45,117.36,253.02,117.22,252.62 M73.28,209.55H42.43c-0.94,0-1.72,0.28-2.33,0.84c-0.61,0.56-0.91,1.29-0.91,2.19
		c0,0.94,0.3,1.7,0.91,2.26c0.61,0.56,1.38,0.84,2.33,0.84h11.95v37.87c0,0.9,0.33,1.67,0.98,2.29c0.65,0.63,1.47,0.95,2.46,0.95
		c0.99,0,1.81-0.31,2.46-0.95c0.65-0.63,0.98-1.39,0.98-2.29V215.7h12.01c0.94,0,1.72-0.27,2.33-0.81c0.61-0.54,0.91-1.28,0.91-2.23
		c0-0.94-0.3-1.7-0.91-2.26C75,209.84,74.23,209.55,73.28,209.55 M17.66,257.48c3.01,0,5.78-0.56,8.3-1.69
		c2.52-1.12,4.51-2.7,5.97-4.73c1.46-2.02,2.19-4.34,2.19-6.95c0-2.97-0.61-5.38-1.82-7.22c-1.21-1.84-2.94-3.28-5.16-4.32
		c-2.23-1.03-5.1-1.93-8.61-2.7c-3.51-0.81-6.15-1.8-7.93-2.97c-1.78-1.17-2.67-2.86-2.67-5.06c0-2.03,0.89-3.66,2.67-4.89
		c1.78-1.24,4.17-1.86,7.19-1.86c1.89,0,3.87,0.4,5.94,1.21c2.07,0.81,3.69,1.8,4.86,2.97c0.41,0.36,0.92,0.54,1.55,0.54
		c0.85,0,1.59-0.31,2.19-0.94c0.61-0.63,0.91-1.35,0.91-2.16c0-1.04-0.52-2-1.55-2.9c-1.53-1.49-3.53-2.68-6.01-3.58
		c-2.48-0.9-5.11-1.35-7.9-1.35c-3.1,0-5.9,0.54-8.37,1.62c-2.48,1.08-4.41,2.62-5.81,4.62c-1.4,2-2.09,4.33-2.09,6.99
		c0,3.83,1.25,6.82,3.75,8.98c2.5,2.16,6.06,3.71,10.7,4.66c3.91,0.85,6.83,1.92,8.74,3.21c1.91,1.28,2.89,3.1,2.94,5.43
		c0,1.98-0.98,3.62-2.94,4.93c-1.96,1.31-4.35,1.96-7.19,1.96c-2.43,0-4.6-0.39-6.51-1.18c-1.91-0.79-3.77-2.01-5.57-3.68
		c-0.54-0.49-1.19-0.74-1.96-0.74c-0.85,0-1.6,0.33-2.23,0.98c-0.63,0.65-0.94,1.38-0.94,2.19c0,1.04,0.47,1.96,1.42,2.77
		c2.3,2.07,4.7,3.57,7.22,4.49C11.47,257.02,14.38,257.48,17.66,257.48"/>
</g>
</svg>
